<svg width="801" height="330" viewBox="0 0 801 330" fill="none" xmlns="http://www.w3.org/2000/svg">
<path d="M0.331494 177.48C-3.31646 111.451 23.1887 60.9871 77.621 25.3042C106.135 6.61229 138.369 -2.0291 172.233 0.401567C240.815 5.32417 291.124 39.1416 318.083 102.672C349.586 176.912 320.407 263.327 250.056 305.464C170.205 353.292 66.6379 326.22 20.8829 245.236C9.09643 224.375 2.08291 201.945 0.331494 177.48ZM167.851 143.082C167.651 143.317 167.45 143.553 167.051 144.403C167.047 144.829 167.043 145.254 166.825 146.125C166.462 146.449 166.1 146.774 164.955 146.918C164.324 148.165 163.692 149.411 162.53 151.102C162.376 152.727 162.222 154.352 162.068 155.977C162.99 155.983 164.313 156.39 164.771 155.932C168.189 152.514 171.435 148.924 174.825 145.426C174.825 145.426 174.798 145.333 175.494 145.461C176.898 144.348 178.442 143.372 179.683 142.1C186.277 135.342 192.734 128.452 199.35 121.718C211.778 109.068 225.406 98.24 243.674 93.8945C244.75 95.1019 245.825 96.3092 246.235 97.7641C243.305 103.624 243.867 105.896 249.068 108.638C250.847 109.311 252.625 109.985 254.222 111.354C249.875 116.089 244.559 120.26 241.4 125.686C236.21 134.604 231.95 144.15 228.137 153.764C220.718 172.471 214.4 191.626 206.62 210.174C201.275 222.916 192.159 233.35 180.24 240.511C171.854 245.55 162.713 249.382 153.75 253.398C143.997 257.767 133.987 261.56 124.23 265.921C117.917 268.744 111.967 272.266 107.805 279.196C110.124 279.74 111.856 280.583 113.518 280.462C122.207 279.829 130.904 279.156 139.551 278.108C150.384 276.794 161.232 275.431 171.961 273.472C180.735 271.87 189.969 270.676 197.867 266.92C207.526 262.326 216.696 256.636 224.484 248.419C231.681 240.825 237.738 232.7 242.591 223.753C251.811 206.759 254.28 187.687 257.908 169.019C260.274 156.846 262.315 144.588 265.277 132.559C267.913 121.853 273.747 119.15 284.144 122.122C285.566 122.529 288.082 121.749 288.968 120.63C289.81 119.565 289.784 117.033 289.101 115.667C283.924 105.317 278.452 95.414 268.992 87.8144C257.318 78.4352 244.483 77.0577 231.085 80.5312C218.543 83.783 207.595 90.9131 198.966 100.598C189.29 111.459 180.391 123.023 171.434 134.5C169.948 136.402 169.895 139.422 169.139 142.436C168.99 142.74 168.84 143.045 168.467 143.166C168.467 143.166 168.185 143.233 167.851 143.082ZM157.274 90.4416C158.737 88.633 159.99 86.586 161.71 85.0694C164.586 82.5341 164.627 79.9143 163.215 76.6084C160.669 70.649 158.363 64.5842 156.082 58.5164C154.883 55.3263 153.399 54.7095 150.611 57.0127C138.044 67.3952 126.896 79.0428 119.516 93.711C108.857 114.893 108.126 136.174 122.072 156.151C136.059 176.187 156.491 187.51 179.151 195.208C180.844 195.783 182.745 195.749 184.549 195.999C184.66 195.573 184.772 195.147 184.884 194.722C183.528 193.868 182.122 193.085 180.826 192.15C174.36 187.483 167.503 183.25 161.556 177.99C146.222 164.425 137.568 147.826 140.958 126.683C143.081 113.439 148.97 101.76 157.274 90.4416ZM75.3372 108.362C74.9019 112.493 74.2217 116.616 74.0722 120.757C73.2863 142.527 80.7478 160.68 98.7898 173.451C117.16 186.454 138.318 192.139 160.313 195.15C160.918 195.233 161.598 194.762 163.227 194.225C160.839 193.066 159.324 192.454 157.93 191.635C147.192 185.326 135.802 179.876 125.899 172.447C107.299 158.492 98.4372 139.485 100.97 115.877C102.288 103.592 106.869 92.412 112.707 81.6348C113.762 79.6859 114.936 76.1893 114.018 75.0532C109.249 69.1518 103.821 63.7836 98.0137 57.5798C86.2286 73.4862 78.9506 89.6259 75.3372 108.362ZM67.1679 147.665C63.6559 136.642 62.9537 125.403 65.4367 114.142C66.514 109.255 65.4758 106.231 60.8383 104.217C58.5803 103.236 56.4906 101.728 54.5594 100.168C51.5367 97.7262 49.782 98.3773 48.9795 102.043C47.629 108.211 45.7461 114.332 45.1177 120.577C43.1376 140.255 46.3826 158.807 59.1689 174.654C72.6769 191.394 90.9632 198.622 111.875 200.367C118.484 200.918 125.068 201.865 131.685 202.215C137.674 202.531 143.692 202.281 149.698 202.281C149.715 201.843 149.733 201.404 149.751 200.965C148.695 200.562 147.664 200.067 146.579 199.768C136.637 197.031 126.532 194.79 116.77 191.523C94.4276 184.046 76.2975 171.458 67.1679 147.665Z" fill="#BC0423"/>
<path d="M533.899 133.647C533.901 117.322 534.004 101.497 533.834 85.6746C533.791 81.7175 535.159 80.5951 539.029 80.6231C560.848 80.7808 582.671 80.5528 604.49 80.7392C627.744 80.9379 645.485 100.438 641.596 121.653C640.783 126.088 638.418 130.319 636.306 134.406C635.105 136.729 634.714 138.193 636.432 140.586C646.279 154.306 642.866 174.76 629.184 185.231C621.825 190.863 613.707 194 604.211 193.751C592.561 193.446 580.896 193.706 569.237 193.702C568.751 193.702 568.264 193.503 567.416 193.317C567.416 191.826 567.416 190.279 567.416 188.069C573.807 188.069 580.095 188.08 586.383 188.066C593.378 188.051 600.377 188.15 607.368 187.958C619.9 187.613 629.063 181.4 634.195 170.312C639.382 159.1 637.749 148.258 629.375 138.776C629.166 138.54 629.092 138.186 628.811 137.574C629.507 136.502 630.224 135.219 631.107 134.063C643.738 117.526 635.338 93.2949 613.133 87.3639C610.588 86.6841 607.864 86.4131 605.222 86.4004C584.734 86.3018 564.244 86.4272 543.759 86.2032C539.176 86.1531 539.18 88.5376 539.186 91.8504C539.253 127.663 539.242 163.476 539.251 199.289C539.251 200.455 539.57 201.753 539.161 202.752C538.71 203.852 537.588 204.677 536.759 205.621C535.801 204.617 534.237 203.729 534.015 202.582C533.58 200.335 533.898 197.944 533.898 195.612C533.899 175.123 533.898 154.635 533.899 133.647Z" fill="#B32A42"/>
<path d="M591.048 176.337C596.88 176.308 602.225 176.507 607.541 176.202C616.195 175.705 623.423 169.528 624.663 161.969C626.16 152.841 622.853 145.74 615.062 142.745C611.89 141.525 608.246 141.14 604.806 141.087C592.495 140.897 580.179 141.013 567.473 141.013C567.313 139.279 567.184 137.886 567.034 136.27C568.274 136.017 569.205 135.664 570.137 135.661C581.634 135.623 593.132 135.708 604.629 135.613C612.635 135.546 619.556 132.894 623.181 125.288C628.831 113.432 621.324 99.454 608.077 98.7736C590.13 97.8517 572.103 98.4731 554.11 98.4217C550.262 98.4107 551.168 101.265 551.166 103.416C551.136 135.244 551.148 167.071 551.146 198.899C551.146 200.398 551.426 201.995 550.994 203.363C550.703 204.288 549.371 205.498 548.542 205.47C547.706 205.441 546.664 204.166 546.186 203.202C545.784 202.391 546.044 201.242 546.044 200.243C546.014 166.416 545.983 132.589 545.975 98.7619C545.974 96.9724 546.175 95.1829 546.291 93.2406C547.839 93.0522 548.966 92.7953 550.094 92.7953C568.923 92.7955 587.758 92.5706 606.58 92.9542C617.046 93.1675 624.618 98.8893 628.507 108.449C632.199 117.526 630.38 126.132 623.691 133.462C622.165 135.134 620.314 136.508 620.651 136.518C622.935 139.782 625.455 142.907 627.46 146.334C635.211 159.583 627.139 178.271 611.996 180.896C604.041 182.275 595.748 181.781 587.603 181.959C580.963 182.103 574.317 181.988 567.379 181.988C567.379 179.988 567.379 178.42 567.379 176.339C575.275 176.339 582.911 176.339 591.048 176.337Z" fill="#B32841"/>
<path d="M433.969 107.441C446.841 140.109 459.57 172.42 472.36 204.886C468.631 206.54 466.863 205.518 465.448 201.905C449.675 161.646 433.75 121.446 417.846 81.2379C417.389 80.0826 416.713 79.0143 415.498 76.6691C412.886 83.1178 410.693 88.4095 408.593 93.7383C394.63 129.179 380.693 164.631 366.724 200.07C365.48 203.227 364.711 207.232 359.055 204.87C361.401 198.865 363.708 192.891 366.063 186.937C381.121 148.878 396.161 110.813 411.351 72.8068C411.998 71.1871 414.183 68.9764 415.446 69.1028C417.153 69.274 419.422 71.1227 420.129 72.8062C424.89 84.1507 429.301 95.6418 433.969 107.441Z" fill="#B62E45"/>
<path d="M689.958 110.857C674.95 143.009 686.826 175.309 718.738 189.907C739.915 199.595 767.531 192.919 783.679 174.201C784.331 173.446 784.795 172.298 785.606 171.963C786.871 171.442 788.359 171.463 789.752 171.253C789.765 172.659 790.374 174.523 789.7 175.399C780.434 187.449 768.44 195.655 753.455 198.418C719.331 204.709 689.738 186.861 680.202 153.514C672.505 126.597 683.795 98.2392 709.296 83.1563C735.543 67.6319 769.642 74.0615 788.617 97.7687C789.63 99.0351 790.513 100.406 791.461 101.734C788.747 105.293 786.951 104.244 784.678 101.547C765.042 78.2519 734.237 73.5858 708.722 90.0306C700.735 95.1778 694.683 102.201 689.958 110.857ZM705.368 88.5956C704.919 88.9347 704.471 89.2738 703.334 89.6959C701.882 90.9407 700.431 92.1856 698.98 93.4305C699.503 93.8949 700.026 94.3594 700.549 94.8239C701.729 93.1132 702.91 91.4026 704.698 89.6866C705.189 89.3751 705.68 89.0636 706.459 88.569C706.291 88.5591 706.123 88.5493 705.368 88.5956ZM783.061 94.9346C782.514 94.7677 781.967 94.6009 781.42 94.434C781.906 94.8982 782.392 95.3624 783.005 96.4684C783.71 97.1452 784.414 97.8221 785.119 98.499C785.432 98.1057 785.746 97.7123 786.059 97.319C785.111 96.7082 784.164 96.0973 783.061 94.9346ZM686.247 110.677C685.84 111.686 685.433 112.696 685.027 113.706C685.462 113.823 685.898 113.94 686.334 114.057C686.606 112.948 686.879 111.84 687.702 110.409C688.024 109.68 688.346 108.95 688.669 108.22C688.285 108.129 687.902 108.037 687.518 107.945C687.315 108.805 687.113 109.664 686.247 110.677ZM771.052 86.3113C771.48 86.6041 771.908 86.8968 772.336 87.1895C772.435 86.929 772.67 86.4809 772.611 86.4379C772.149 86.1027 771.631 85.8453 770.702 85.0276C753.972 72.6134 722.195 75.2707 716.628 83.2623C717.192 83.1949 717.684 83.2228 718.113 83.0723C731.372 78.4221 744.721 76.5573 758.363 81.5257C762.52 83.0395 766.753 84.3416 771.052 86.3113ZM680.913 145.308C681.068 147.273 681.223 149.237 681.378 151.202C681.758 151.158 682.137 151.113 682.517 151.069C682.517 141.778 682.517 132.487 682.517 123.196C679.396 130.142 679.424 137.242 680.913 145.308ZM684.195 159.842C685.19 161.886 686.186 163.931 687.181 165.976C687.585 165.766 687.99 165.556 688.394 165.347C686.736 161.203 685.079 157.059 683.422 152.915C683.015 153.048 682.609 153.181 682.202 153.314C682.809 155.245 683.415 157.175 684.195 159.842ZM691.079 169.267C690.516 169.482 689.953 169.698 689.39 169.913C691.128 172.217 692.867 174.52 694.605 176.823C695.06 176.49 695.514 176.156 695.969 175.822C694.51 173.787 693.051 171.752 691.079 169.267ZM683.796 116.035C683.272 117.368 682.748 118.701 682.223 120.033C682.846 120.178 683.47 120.323 684.093 120.468C684.225 119.01 684.357 117.552 683.796 116.035ZM779.48 90.7328C778.79 90.6256 778.1 90.5183 777.41 90.4111C777.651 90.9794 777.892 91.5477 778.132 92.116C778.677 91.8403 779.221 91.5646 779.48 90.7328ZM705.239 186.289C705.023 185.544 704.807 184.799 704.591 184.054C704.186 184.199 703.782 184.344 703.377 184.489C703.789 185.097 704.202 185.706 705.239 186.289ZM700.279 182.809C700.761 182.776 701.244 182.742 701.727 182.709C701.561 182.297 701.395 181.884 701.229 181.471C700.857 181.729 700.484 181.986 700.279 182.809ZM775.688 88.9853C775.45 88.6716 775.211 88.3579 774.972 88.0441C774.772 88.235 774.572 88.4258 774.372 88.6167C774.679 88.8629 774.986 89.1091 775.688 88.9853ZM709.663 86.9563C709.431 86.648 709.199 86.3397 708.966 86.0313C708.766 86.2209 708.565 86.4104 708.364 86.6C708.665 86.8394 708.966 87.0789 709.663 86.9563ZM712.429 84.3252C712.655 84.6286 712.88 84.9319 713.105 85.2353C713.303 85.0471 713.502 84.8588 713.7 84.6706C713.404 84.433 713.108 84.1955 712.429 84.3252ZM698.699 179.968C698.459 179.654 698.22 179.339 697.98 179.025C697.781 179.214 697.583 179.403 697.385 179.591C697.691 179.84 697.998 180.088 698.699 179.968Z" fill="#B7364C"/>
<path d="M618.892 71.2407C644.265 76.9784 663.729 109.445 649.477 134.774C648.613 136.31 648.344 139.226 649.227 140.541C660.281 157 651.94 185.253 635.178 196.372C627.873 201.217 619.978 204.997 611.116 205.221C596.672 205.584 582.212 205.319 567.368 205.319C567.298 203.828 567.233 202.444 567.137 200.376C572.265 200.376 577.035 200.477 581.8 200.356C592.435 200.085 603.216 200.709 613.669 199.156C634.778 196.02 650.042 177.027 648.726 156.094C648.397 150.861 645.403 145.814 643.803 140.629C643.321 139.07 642.636 136.794 643.356 135.758C658.143 114.487 643.706 81.9771 615.032 75.3908C614.871 75.3538 614.72 75.2742 614.155 74.7576C612.865 74.2954 611.985 74.29 611.105 74.2846C610.252 74.2501 609.399 74.2157 608.205 73.8388C607.586 73.6148 607.309 73.7332 607.032 73.8517C606.301 73.9121 605.57 73.9725 604.202 73.604C602.768 73.009 601.971 72.699 601.173 72.6979C581.443 72.6709 561.713 72.6259 541.984 72.7271C538.76 72.7436 535.538 73.4302 532.315 73.8071C531.456 73.9031 530.596 73.999 529.143 73.837C528.056 73.9445 527.563 74.31 527.069 74.6755C527.06 74.852 527.051 75.0284 526.691 75.6521C525.564 76.3785 524.786 76.6575 524.009 76.9366C523.867 75.5545 523.161 73.2865 523.687 72.9513C525.486 71.8049 527.714 70.7169 529.784 70.7056C555.895 70.5629 582.007 70.5889 608.119 70.6414C611.71 70.6486 615.301 71.0317 618.892 71.2407Z" fill="#B4223C"/>
<path d="M700.153 117.074C692.627 133.029 693.577 148.279 703.134 162.503C712.489 176.428 726.061 182.875 742.861 182.104C755.867 181.507 766.459 175.906 775.112 166.253C776.095 165.156 778.706 164.214 779.778 164.755C782.715 166.235 780.423 168.033 779.254 169.462C764.038 188.06 738.163 193.123 716.436 181.789C696.875 171.585 685.685 146.641 691.303 125.762C697.909 101.212 718.903 85.4619 743.224 86.808C758.741 87.6669 774.783 96.8141 781.181 108.502C778.816 111.865 777.02 110.783 774.67 108.137C753.017 83.757 715.92 88.0924 700.153 117.074Z" fill="#B62B43"/>
<path d="M558.951 105.101C574.472 104.798 589.63 104.501 604.78 104.74C613.269 104.873 618.479 109.912 618.519 116.87C618.556 123.366 614.581 128.508 608.126 128.691C594.659 129.073 581.173 128.806 567.395 128.806C567.395 127.204 567.395 125.792 567.395 124.042C568.334 123.867 569.27 123.542 570.206 123.541C581.367 123.532 592.528 123.616 603.689 123.558C605.642 123.547 608.089 123.612 609.419 122.54C611.138 121.154 612.964 118.623 612.892 116.653C612.822 114.738 610.71 112.516 608.932 111.171C607.648 110.2 605.446 110.2 603.65 110.187C591.822 110.096 579.992 110.199 568.166 110.056C564.521 110.012 562.974 110.724 563.007 115.044C563.219 143.19 563.066 171.339 563.028 199.487C563.026 200.819 563.319 202.286 562.855 203.442C562.482 204.371 561.236 205.343 560.253 205.495C559.594 205.598 558.507 204.427 558.008 203.589C557.637 202.967 557.889 201.966 557.888 201.133C557.878 170.478 557.862 139.824 557.894 109.169C557.895 107.89 558.345 106.611 558.951 105.101Z" fill="#B2243D"/>
<path d="M679.091 178.491C671.9 169.163 667.989 158.382 666.708 146.903C662.289 107.305 686.513 73.5152 725.412 64.3818C752.25 58.0805 783.466 69.924 799.548 92.5282C800.102 93.3074 800.484 94.2088 800.917 94.9975C798.23 98.9134 796.334 97.0664 794.349 94.5527C784.63 82.2486 772.098 74.3806 756.949 70.32C725.559 61.9064 689.429 79.8452 677.173 109.944C668.503 131.237 669.951 151.83 680.464 172.308C679.882 172.646 679.542 172.631 679.033 172.341C678.229 171.34 677.594 170.616 676.959 169.892C676.658 170.084 676.357 170.275 676.056 170.466C676.71 171.572 677.364 172.678 678.028 174.134C678.388 175.82 678.74 177.156 679.091 178.491ZM675.043 167.176C675.18 167.456 675.316 167.735 675.453 168.015C675.329 167.551 675.205 167.086 675.096 165.824C674.668 164.244 674.142 162.683 673.83 161.081C672.265 153.046 669.768 145.03 669.531 136.951C669.328 130.035 671.761 123.046 672.953 116.076C673.058 115.461 672.605 114.751 672.266 113.584C668.191 122.587 666.219 139.38 668.636 148.627C670.243 154.78 672.854 160.671 675.043 167.176ZM675.71 107.254C676.09 106.738 676.47 106.221 676.85 105.704C676.487 105.498 676.124 105.291 675.761 105.085C675.599 105.652 675.438 106.219 675.71 107.254ZM674.666 110.981C674.441 110.674 674.217 110.367 673.993 110.06C673.8 110.251 673.607 110.442 673.414 110.633C673.707 110.874 674 111.115 674.666 110.981Z" fill="#B63249"/>
<path d="M770.684 160.808C760.441 174.315 742.826 179.304 727.086 173.367C710.652 167.168 700.749 151.432 702.101 133.665C703.315 117.702 716.29 102.991 732.106 99.6437C747.436 96.3996 764.713 103.246 771.312 115.295C769.403 117.936 767.758 118.426 765.211 115.554C755.258 104.331 742.614 101.535 728.909 106.31C716.266 110.715 708.764 120.417 707.485 133.894C706.085 148.648 712.578 159.684 725.379 166.881C737.447 173.666 754.368 170.606 764.383 160.112C765.411 159.036 766.376 157.902 768.16 155.915C769.209 157.709 770.038 159.127 770.684 160.808Z" fill="#B62B43"/>
<path d="M618.589 70.9914C615.301 71.0315 611.71 70.6484 608.119 70.6412C582.007 70.5887 555.895 70.5627 529.784 70.7054C527.714 70.7167 525.486 71.8047 523.687 72.9511C523.161 73.2863 523.867 75.5543 524.009 76.9364C524.786 76.6573 525.564 76.3783 526.584 75.8944C526.896 87.3348 527.011 98.98 527.024 110.625C527.057 140.753 527.023 170.881 527.082 201.008C527.088 204.329 526.776 206.841 521.838 205.046C521.838 202.489 521.837 199.711 521.838 196.934C521.852 156.154 521.931 115.373 521.789 74.5934C521.774 70.0902 522.911 68.6318 527.609 68.6747C553.241 68.9092 578.876 68.7005 604.508 68.8878C609.105 68.9214 613.694 70.095 618.589 70.9914Z" fill="#AC314B"/>
<path d="M462.922 163.033C450.625 131.77 438.473 100.859 426.257 69.7842C430.038 67.8505 431.641 69.1001 432.925 72.372C448.057 110.91 463.286 149.409 478.497 187.916C480.684 193.45 482.916 198.965 485.212 204.702C481.272 206.717 479.541 205.241 478.24 201.881C473.263 189.019 468.137 176.213 462.922 163.033Z" fill="#B62E45"/>
<path d="M465.332 103.681C460.784 92.2144 456.39 81.1052 451.918 69.7993C456.05 67.5714 457.489 69.5322 458.756 72.7614C470.604 102.968 482.534 133.143 494.457 163.32C499.888 177.068 505.357 190.801 510.924 204.831C507.939 205.997 505.743 206.473 504.357 202.935C491.434 169.956 478.451 137.001 465.332 103.681Z" fill="#B62E45"/>
<path d="M474.849 160.165C463.003 130.257 451.321 100.7 439.657 71.1367C439.488 70.7073 439.544 70.1892 439.483 69.606C443.805 67.2916 444.905 70.23 446.134 73.3533C457.467 102.152 468.853 130.93 480.221 159.715C486.139 174.7 492.05 189.688 498.071 204.948C494.982 206.168 492.922 206.333 491.569 202.805C486.15 188.671 480.549 174.607 474.849 160.165Z" fill="#B62E45"/>
<path d="M548.296 234.036C546.164 232.068 544.05 230.553 541.437 228.68C542.51 228.214 543.417 227.483 544.326 227.479C551.488 227.453 558.681 227.177 565.807 227.729C575.662 228.492 580.773 235.941 577.097 244.259C575.811 247.169 572.58 249.219 569.716 252.204C575.144 257.595 573.704 268.762 584.321 271.594C579.395 275.474 573.097 274.066 570.973 268.979C569.242 264.835 567.858 260.482 565.595 256.649C564.451 254.711 561.883 253.161 559.636 252.43C556.131 251.288 554.323 253.033 554.767 256.871C554.938 258.35 554.892 259.876 554.759 261.364C554.331 266.136 554.496 270.471 560.755 271.16C561.005 271.187 561.173 271.961 561.665 272.98C554.886 272.98 548.484 272.98 542.09 272.98C542.09 272.343 542.04 271.761 542.097 271.751C548.739 270.507 548.537 265.64 548.406 260.477C548.185 251.819 548.326 243.152 548.296 234.036ZM568.958 246.013C572.336 242.368 572.476 238.238 570.184 234.155C568.35 230.889 561.055 229.102 557.036 230.826C552.759 232.659 555.479 236.632 554.745 239.566C554.667 239.878 554.735 240.225 554.735 240.556C554.74 249.562 555.87 250.437 564.737 248.103C565.985 247.774 567.132 247.062 568.958 246.013Z" fill="#B32841"/>
<path d="M413.878 112.79C402.178 142.536 390.577 171.906 379.051 201.306C377.843 204.387 376.657 206.962 371.888 204.88C386.562 167.64 401.25 130.363 415.939 93.0869C416.608 93.1373 417.278 93.1877 417.948 93.238C418.007 96.2437 418.62 99.373 417.983 102.223C417.198 105.744 415.374 109.033 413.878 112.79Z" fill="#B63249"/>
<path d="M587.046 169.842C580.253 169.841 573.96 169.841 567.779 169.841C566.163 165.588 567.533 164.23 571.4 164.273C582.059 164.392 592.72 164.333 603.38 164.305C605.037 164.301 607.17 164.691 608.245 163.84C610.209 162.286 612.439 160.132 612.924 157.877C613.566 154.896 611.132 153.019 607.992 152.967C598.172 152.804 588.351 152.726 578.53 152.637C574.903 152.604 571.275 152.632 567.388 152.632C567.388 150.616 567.388 149.191 567.388 147.015C569.743 147.015 572.009 147 574.275 147.018C585.598 147.106 596.935 146.886 608.238 147.409C615.726 147.755 619.28 152.681 618.394 159.923C617.753 165.157 614.556 168.825 608.991 169.279C601.875 169.86 594.697 169.689 587.046 169.842Z" fill="#AD233C"/>
<path d="M679.201 172.617C679.542 172.631 679.882 172.646 680.479 172.663C680.734 172.665 681.072 172.982 681.096 173.528C681.662 174.602 682.203 175.13 682.745 175.658C682.745 175.658 683.115 175.845 683.124 176.382C683.659 177.499 684.187 178.079 684.714 178.659C684.714 178.659 685.089 178.896 685.115 179.492C686.904 181.892 688.668 183.696 690.432 185.5C690.881 185.833 691.329 186.165 691.942 187.034C693.089 188.283 694.071 188.994 695.053 189.706C695.542 190.021 696.031 190.336 696.791 191.335C699.058 193.228 701.054 194.437 703.05 195.646C703.231 195.733 703.413 195.82 703.91 196.435C705.386 197.44 706.546 197.917 707.706 198.394C707.706 198.394 707.876 198.36 708.132 198.706C708.817 199.19 709.246 199.327 709.676 199.464C719.335 203.044 729.026 206.022 739.572 206.109C758.555 206.264 774.554 199.401 789.102 186.767C790.17 185.952 790.62 185.327 791.071 184.702C791.071 184.702 791.039 184.662 791.42 184.62C792.828 183.12 793.856 181.662 794.883 180.204C795.134 179.783 795.386 179.363 796.074 178.681C796.701 178.134 796.891 177.848 797.082 177.562C797.9 177.743 798.718 177.924 799.908 178.292C800.28 178.477 800.229 178.35 800.229 178.35C799.944 179.622 799.66 180.893 798.926 182.52C798.253 183.063 798.111 183.301 798.052 183.588C796.462 185.482 794.872 187.376 792.665 189.482C791.373 190.456 790.697 191.217 790.022 191.979C789.964 192.234 789.822 192.428 789.072 192.626C787.037 194.126 785.528 195.56 784.018 196.993C783.891 197.141 783.764 197.289 783.153 197.614C782.391 197.93 782.193 198.143 782.075 198.432C782.075 198.432 781.851 198.741 781.285 198.817C772.494 202.481 764.269 206.069 756.045 209.658C755.589 209.878 755.133 210.099 754.038 210.1C752.261 210.195 751.122 210.51 749.982 210.826C743.608 210.873 737.233 210.921 730.301 210.584C728.876 210.256 728.009 210.312 727.141 210.368C726.653 210.293 726.165 210.217 725.285 209.736C724.316 209.321 723.738 209.312 723.161 209.303C722.667 209.275 722.174 209.248 721.216 208.745C719.981 208.134 719.211 207.998 718.44 207.863C718.116 207.881 717.791 207.899 717.04 207.532C716.189 207.077 715.765 207.008 715.34 206.938C715.34 206.938 715.204 206.937 714.968 206.583C709.985 203.986 705.237 201.743 700.489 199.5C700.489 199.5 700.243 199.547 700.099 199.125C699.232 198.386 698.509 198.069 697.786 197.752C697.786 197.752 697.325 197.657 697.139 197.136C695.568 195.66 694.181 194.704 692.795 193.747C692.795 193.747 692.334 193.652 692.146 193.188C691.379 192.34 690.801 191.957 690.223 191.573C690.223 191.573 690.117 191.599 690.093 191.195C689.123 190.051 688.177 189.313 687.232 188.574C687.232 188.574 687.101 188.575 687.06 188.199C685.847 186.756 684.674 185.69 683.501 184.623C683.501 184.623 683.1 184.327 683.029 183.707C681.688 181.591 680.418 180.096 679.148 178.601C679.148 178.601 679.061 178.577 679.076 178.534C678.74 177.156 678.388 175.82 678.267 173.986C678.732 173.197 678.967 172.907 679.201 172.617Z" fill="#B32841"/>
<path d="M642.702 270.104C643.962 270.778 644.873 271.305 645.785 271.832C645.712 272.182 645.64 272.532 645.567 272.881C639.275 272.881 632.984 272.881 626.293 272.881C626.845 272.011 627.012 271.501 627.363 271.235C629.147 269.882 633.758 271.065 632.086 266.673C630.64 262.874 630.787 257.184 624.013 258.034C621.56 258.342 619.023 258.158 616.538 257.995C613.659 257.806 611.984 258.818 610.928 261.68C608.632 267.91 608.483 267.855 615.944 272.817C609.3 272.817 603.702 272.817 597.417 272.817C609.034 265.541 608.203 252.458 613.284 242.359C615.21 238.531 616.097 234.19 617.869 230.269C618.44 229.005 620.35 227.572 621.607 227.609C622.885 227.646 624.73 229.146 625.266 230.443C630.023 241.95 634.497 253.573 639.185 265.109C639.898 266.864 641.281 268.347 642.702 270.104ZM624.163 254.558C625.122 254.009 626.977 253.159 626.908 252.956C625.078 247.515 623.05 242.14 621.055 236.754C620.623 236.842 620.191 236.93 619.758 237.018C617.765 242.635 615.772 248.251 613.526 254.582C617.383 254.582 620.324 254.582 624.163 254.558ZM624.866 241.358C628.435 251.158 632.004 260.959 635.802 271.388C636.161 271.388 637.713 271.388 639.585 271.388C633.729 257.039 627.991 242.977 621.836 227.894C620.165 230.43 619.137 231.992 618.108 233.554C618.597 233.432 619.085 233.31 619.573 233.188C621.222 235.678 622.87 238.168 624.866 241.358Z" fill="#A82B43"/>
<path d="M415.066 174.919C411.466 184.104 407.869 192.878 404.571 201.763C403.372 204.995 401.706 206.435 397.492 205.048C407.933 178.548 418.352 152.104 428.988 125.11C431.899 128.551 432.324 131.507 430.849 135.132C425.521 148.228 420.391 161.405 415.066 174.919Z" fill="#B63249"/>
<path d="M375.118 273.273C372.615 273.273 370.112 273.273 367.104 273.273C367.778 272.002 367.965 271.241 368.227 271.215C375.09 270.512 374.652 265.667 374.519 260.685C374.324 253.359 374.285 246.016 374.558 238.694C374.724 234.225 374.286 230.694 368.782 230.385C368.498 230.37 368.181 230.099 367.97 229.866C367.759 229.632 367.663 229.296 367.087 228.149C378.969 228.149 390.459 228.149 402.494 228.149C402.697 230.438 403.059 233.04 403.088 235.646C403.099 236.586 402.309 237.534 401.885 238.478C401.041 237.892 400.024 237.45 399.388 236.689C398.068 235.109 397.128 232.113 395.715 231.911C391.316 231.284 386.768 231.617 382.286 231.797C381.805 231.817 381.015 233.268 380.992 234.073C380.866 238.532 380.932 242.996 380.932 247.785C387.073 247.883 393.044 249.499 397.328 243.148C397.328 247.679 397.328 252.209 397.328 256.74C393.449 250.381 387.469 251.296 380.978 251.268C380.978 256.677 380.817 261.938 381.145 267.169C381.196 267.979 383.452 269.219 384.737 269.283C389.222 269.506 393.728 269.301 398.56 269.55C393.328 270.207 387.761 270.774 382.197 270.752C381.18 270.748 379.324 268.358 379.296 267.04C379.064 256.135 379.072 245.222 379.296 234.317C379.326 232.851 381.007 230.144 381.85 230.173C388.324 230.393 395.599 226.848 401.302 233.418C400.653 231.491 399.583 228.881 398.399 228.829C390.217 228.467 382.012 228.638 374.668 228.638C377.016 243.843 376.258 258.552 375.118 273.273Z" fill="#B23E52"/>
<path d="M504.837 273.523C503.563 273.305 502.695 273.086 501.799 272.861C502.014 272.183 502.07 271.63 502.214 271.606C508.804 270.508 508.97 265.829 508.786 260.55C508.519 252.908 508.464 245.241 508.782 237.603C508.956 233.432 507.799 230.993 503.5 230.394C502.825 230.3 502.226 229.664 501.467 229.203C504.556 226.982 517.084 226.727 521.341 228.592C521.254 228.899 521.195 229.453 521.06 229.472C513.752 230.517 514.713 235.966 514.782 241.038C514.868 247.357 514.75 253.679 514.815 259.999C514.868 265.098 512.691 271.485 523.143 270.977C522.568 271.776 521.993 272.575 521.418 273.375C516.026 273.424 510.635 273.473 504.837 273.523Z" fill="#B2243D"/>
<path d="M429.941 231.683C427.805 230.977 425.669 230.272 423.534 229.566C423.562 228.926 423.59 228.287 423.618 227.647C426.993 227.578 430.409 227.817 433.732 227.367C438.553 226.715 439.87 229.522 441.11 233.317C442.752 238.343 444.949 243.187 446.931 248.891C449.138 255.073 448.68 262.016 455.792 264.703C455.617 265.436 455.572 266.303 455.208 267.004C454.389 268.581 453.412 270.077 452.499 271.606C451.627 270.225 450.655 268.896 449.904 267.452C447.678 263.171 445.539 258.844 443.366 254.534C443.366 254.534 443.185 254.333 443.21 254.028C443.084 253.419 442.935 253.115 442.785 252.81C442.627 252.596 442.47 252.382 442.226 251.404C441.059 247.998 439.98 245.356 438.901 242.714C438.901 242.714 439.001 242.715 439.01 242.362C438.192 239.94 437.366 237.872 436.54 235.804C434.916 237.45 434.257 238.695 434.243 239.946C434.144 249.023 434.156 258.102 434.209 267.18C434.212 267.704 434.876 268.225 435.233 268.747C435.362 268.888 435.491 269.029 435.794 269.723C435.984 271.29 435.999 272.304 436.015 273.318C434.291 273.371 432.567 273.424 430.255 273.207C429.474 271.985 429.282 271.034 429.09 270.083C429.09 270.083 429.376 269.721 429.895 269.501C430.526 268.867 430.638 268.453 430.75 268.039C430.579 267.858 430.536 267.65 430.812 266.782C431.204 257.951 431.581 249.751 431.517 241.553C431.491 238.259 430.495 234.973 429.941 231.683Z" fill="#AD233C"/>
<path d="M443.352 254.922C445.539 258.844 447.678 263.171 449.904 267.452C450.655 268.896 451.627 270.225 452.499 271.606C453.412 270.077 454.389 268.581 455.208 267.004C455.572 266.303 455.617 265.436 455.792 264.703C448.68 262.016 449.138 255.074 446.953 249.285C449.016 253.332 451.082 257.767 453.541 263.048C454.485 261.242 455.155 260.217 455.584 259.1C459.201 249.667 462.754 240.209 466.388 230.783C466.83 229.635 467.589 227.739 468.287 227.699C473.059 227.426 477.855 227.556 483.785 227.556C480.801 231.601 474.258 230.413 475.38 236.252C475.482 233.691 475.923 231.202 476.392 228.56C475.706 228.56 474.485 228.308 473.426 228.617C471.704 229.119 469.615 229.607 468.615 230.851C468.062 231.539 469.413 233.753 469.903 235.281C470.244 236.346 470.914 237.428 470.867 238.477C470.347 250.075 469.716 261.668 469.114 273.262C467.08 273.357 465.046 273.451 462.291 273.579C463.018 272.117 463.249 271.13 463.562 271.103C469.842 270.566 469.384 266.152 469.293 261.679C469.141 254.144 469.252 246.604 468.078 238.822C466.347 243.196 464.572 247.553 462.896 251.948C460.529 258.159 458.341 264.442 455.819 270.588C455.313 271.822 453.666 273.32 452.516 273.346C451.413 273.37 449.756 271.859 449.236 270.641C447.086 265.61 445.274 260.433 443.352 254.922Z" fill="#AD4256"/>
<path d="M715.048 227.661C718.759 227.62 722.471 227.579 727.102 227.668C733.344 227.762 738.667 227.726 743.989 227.69C743.989 227.69 744.01 227.645 744.187 227.898C744.716 228.259 745.068 228.367 745.421 228.475C745.538 229.035 745.654 229.596 745.537 230.586C745.431 231.534 745.56 232.052 745.689 232.57C745.762 233.015 745.836 233.46 745.512 234.268C743.49 233.617 741.866 232.603 740.242 231.59C738.778 231.494 737.313 231.399 735.34 231.085C734.516 230.727 734.277 230.807 734.113 231.107C732.685 231.171 731.258 231.236 729.331 231.082C728.518 230.724 728.278 230.803 728.112 231.1C727.188 231.215 726.265 231.331 724.537 231.641C723.709 236.764 723.686 241.691 723.663 246.619C723.734 246.821 723.805 247.023 723.925 247.95C723.888 254.306 723.802 259.938 723.717 265.569C723.752 266.056 723.787 266.543 723.546 267.663C723.532 268.859 723.64 269.708 724.078 269.942C728.536 272.332 741.039 270.127 744.912 266.485C745.506 265.927 746.671 265.976 747.572 265.744C747.561 267.417 747.55 269.09 747.18 271.241C746.538 272.252 746.255 272.784 745.972 273.316C736.319 273.375 726.665 273.434 716.538 273.089C716.101 271.846 716.138 271.006 716.176 270.165C716.176 270.165 716.507 269.816 716.699 269.711C716.891 269.606 716.89 269.634 716.89 269.634C717.004 269.483 717.118 269.332 717.701 268.871C718.412 256.913 718.683 245.265 718.818 233.615C718.826 232.956 717.707 232.285 717.113 231.62C717.113 231.62 717.064 231.654 716.925 231.328C716.206 229.888 715.627 228.774 715.048 227.661Z" fill="#AC1B36"/>
<path d="M659.846 235.609C659.714 236.129 659.581 236.65 659.174 237.564C658.9 237.958 658.915 238.265 658.915 238.265C658.18 238.304 657.446 238.343 656.711 238.382C656.675 237.222 656.639 236.061 656.81 234.099C657.372 231.401 657.726 229.505 658.08 227.609C659.46 227.567 660.84 227.524 662.874 227.619C663.692 227.72 663.857 227.683 664.022 227.646C664.784 227.608 665.546 227.57 666.898 227.851C668.672 228.005 669.857 227.841 671.041 227.676C671.858 227.636 672.674 227.596 674.255 227.713C676.012 227.802 677.005 227.734 677.998 227.665C678.761 227.621 679.525 227.577 681.094 227.668C683.63 227.742 685.36 227.679 687.09 227.616C687.511 227.56 687.931 227.503 689.033 227.61C690.212 227.7 690.71 227.627 691.207 227.553C691.798 228.472 692.39 229.391 692.9 230.736C692.819 231.163 692.857 231.233 692.857 231.233C692.893 233.372 692.929 235.512 692.519 238.117C691.656 238.758 691.241 238.932 690.825 239.107C690.825 239.107 690.723 239.027 690.824 238.666C690.384 237.423 689.845 236.541 689.306 235.66C688.692 234.375 688.079 233.091 687.01 231.299C685.377 230.418 684.198 230.044 683.361 229.659C684.487 229.544 685.272 229.442 686.058 229.339C685.963 229.064 685.868 228.789 685.774 228.515C684.853 228.9 683.933 229.286 682.625 229.675C680.811 230.243 679.383 230.807 677.956 231.371C677.93 231.59 677.904 231.81 677.547 232.683C677.372 244.439 677.528 255.541 677.684 266.643C678.013 267.554 678.342 268.465 679.067 269.983C680.84 270.833 682.217 271.078 683.595 271.322C683.494 271.952 683.394 272.581 682.612 273.006C680.982 272.954 680.033 273.109 679.085 273.263C676.353 273.318 673.622 273.372 670.302 273.152C669.163 272.994 668.614 273.111 668.064 273.228C667.639 273.276 667.215 273.323 666.471 272.974C666.082 272.18 666.012 271.782 665.943 271.385C665.943 271.385 666.128 271.156 666.568 271.29C667.717 271.116 668.426 270.807 669.135 270.499C669.428 270.332 669.72 270.166 670.457 269.814C670.901 269.629 670.91 269.658 670.91 269.658C671.099 269.288 671.289 268.918 671.83 267.601C672.19 255.7 672.106 244.746 672.264 233.795C672.311 230.477 671.061 229.132 667.889 229.683C666.294 229.959 664.757 230.562 663.194 231.017C662.995 231.146 662.795 231.275 661.943 231.534C660.808 232.979 660.327 234.294 659.846 235.609Z" fill="#AC132F"/>
<path d="M411.264 151.067C411.069 151.732 410.875 152.396 410.171 153.464C408.925 156.018 408.187 158.169 407.449 160.32C407.413 160.651 407.376 160.982 407.127 161.579C406.914 161.846 406.897 162.021 406.897 162.021C406.848 162.3 406.799 162.578 406.251 163.355C405.604 164.622 405.455 165.391 405.307 166.16C405.307 166.16 405.405 166.425 405.005 166.709C402.177 173.397 399.749 179.8 397.322 186.204C397.145 186.828 396.967 187.453 396.295 188.461C394.145 193.566 392.491 198.286 390.836 203.007C390.836 203.007 390.883 203.309 390.455 203.486C389.021 203.974 388.015 204.285 386.623 204.716C387.229 201.858 387.727 199.515 388.225 197.172C388.26 196.911 388.296 196.651 388.823 195.918C390.502 192.062 391.689 188.68 392.877 185.298C393.076 184.62 393.275 183.942 393.973 182.833C395.257 180.003 396.042 177.604 396.827 175.204C397.154 174.201 397.482 173.198 398.214 171.751C398.694 170.934 398.769 170.562 398.844 170.189C398.917 169.83 398.99 169.47 399.49 168.683C400.495 166.501 401.071 164.747 401.648 162.994C401.713 162.609 401.779 162.224 401.994 161.614C402.144 161.39 402.176 161.434 402.176 161.434C402.256 161.123 402.335 160.813 402.95 159.953C403.933 157.993 404.382 156.582 404.83 155.171C405.024 154.522 405.218 153.872 405.898 152.819C406.581 151.451 406.779 150.486 406.977 149.521C407.076 149.089 407.176 148.657 407.78 147.839C408.441 146.661 408.597 145.868 408.753 145.076C409.052 144.1 409.351 143.124 410.163 141.749C412.089 137.363 413.501 133.376 414.913 129.39C414.913 129.39 414.882 128.984 415.244 128.65C416.375 127.424 417.145 126.532 418.271 125.646C419.102 125.649 419.576 125.646 420.009 126.015C417.066 134.614 414.165 142.84 411.264 151.067Z" fill="#B2243D"/>
<path d="M791.222 258.759C786.692 256.14 782.268 253.311 777.603 250.959C772.359 248.315 768.401 245.144 768.844 238.509C769.151 233.904 771.199 230.34 775.228 228.556C781.508 225.775 787.903 226.222 793.773 229.968C795.067 230.794 796.429 232.389 796.651 233.804C796.951 235.715 796.808 238.363 795.669 239.623C794.763 240.624 792.079 240.018 790.184 240.125C790.556 239.615 790.928 239.105 791.301 238.594C790.382 236.318 790.081 233.275 788.412 231.93C785.193 229.337 779.373 230.693 775.256 234.307C774.567 234.643 774.347 234.663 774.075 234.347C773.336 233.962 772.269 233.591 772.017 233.895C768.898 237.664 770.326 244.638 774.804 247.04C778.13 248.824 781.91 249.87 784.987 251.976C787.455 253.667 789.172 256.457 791.222 258.759Z" fill="#AC314B"/>
<path d="M375.533 273.338C376.258 258.552 377.016 243.843 374.668 228.639C382.012 228.639 390.218 228.467 398.399 228.829C399.583 228.881 400.653 231.491 401.302 233.418C395.599 226.848 388.324 230.393 381.85 230.173C381.007 230.144 379.327 232.851 379.296 234.317C379.072 245.222 379.064 256.136 379.296 267.04C379.324 268.359 381.18 270.748 382.197 270.752C387.761 270.774 393.328 270.207 399.031 269.478C399.168 269.115 399.159 268.893 399.586 268.772C400.9 268.523 401.786 268.394 402.672 268.265C402.64 269.046 402.919 270.115 402.514 270.552C401.536 271.61 400.239 272.375 399.07 273.258C391.363 273.306 383.655 273.354 375.533 273.338Z" fill="#B20622"/>
<path d="M445.737 177.431C436.559 177.433 427.836 177.433 418.985 177.433C418.978 173.168 420.685 171.718 424.187 171.771C431.318 171.878 438.456 171.942 445.583 171.735C449.066 171.634 450.871 172.944 451.35 177.054C449.591 177.182 447.892 177.306 445.737 177.431Z" fill="#B63249"/>
<path d="M469.529 273.327C469.716 261.668 470.347 250.075 470.867 238.477C470.914 237.428 470.244 236.346 469.903 235.28C469.413 233.753 468.062 231.538 468.615 230.851C469.615 229.607 471.704 229.119 473.426 228.617C474.485 228.308 475.706 228.559 476.392 228.559C475.923 231.202 475.482 233.691 475.193 236.601C475.393 237.363 475.44 237.704 475.091 238.578C474.523 240.741 474.174 242.374 474.209 244C474.413 253.75 474.704 263.499 474.967 273.249C473.293 273.297 471.619 273.344 469.529 273.327Z" fill="#B20622"/>
<path d="M429.429 165.712C427.369 165.719 425.757 165.719 423.933 165.719C423.521 161.582 424.867 159.729 428.785 159.858C432.911 159.995 437.049 160.029 441.173 159.876C444.681 159.745 446.442 161.157 446.446 165.706C440.899 165.706 435.388 165.706 429.429 165.712Z" fill="#B63249"/>
<path d="M418.056 183.985C429.153 183.911 440.251 183.762 451.346 183.867C452.609 183.879 453.859 185.315 454.6 186.373C442.817 186.976 431.549 187.366 420.278 187.461C419.547 187.467 418.797 185.196 418.056 183.985Z" fill="#B4223C"/>
<path d="M723.898 265.217C723.802 259.938 723.888 254.306 723.977 248.266C733.516 248.599 734.681 248.244 740.492 242.374C740.492 247.623 740.492 252.231 740.492 256.84C736.737 250.012 730.621 251.548 724.079 251.203C724.079 256.052 724.079 260.459 723.898 265.217Z" fill="#AD4256"/>
<path d="M791.224 258.966C789.172 256.457 787.455 253.667 784.987 251.976C781.91 249.87 778.13 248.824 774.804 247.04C770.326 244.638 768.898 237.664 772.017 233.895C772.269 233.591 773.336 233.962 773.804 234.598C772.864 241.892 774.548 243.895 782.682 247.657C787.789 250.02 793.839 251.347 796.139 258.031C795.875 261.759 795.643 265.037 795.41 268.316C795.402 268.623 795.284 268.881 794.521 268.909C793.631 267.377 793.277 266.023 792.964 264.281C792.707 262.443 792.409 260.995 791.955 259.505C791.8 259.464 791.481 259.499 791.481 259.499C791.481 259.499 791.225 259.173 791.224 258.966Z" fill="#B20622"/>
<path d="M532.736 73.9693C535.538 73.43 538.76 72.7435 541.984 72.7269C561.713 72.6258 581.443 72.6707 601.173 72.6977C601.971 72.6988 602.768 73.0088 603.848 73.4979C598.524 73.9657 592.918 74.228 587.311 74.2333C569.26 74.2504 551.208 74.1727 532.736 73.9693Z" fill="#AC314B"/>
<path d="M792.923 264.67C793.277 266.023 793.631 267.377 794.328 269.009C794.352 269.622 794.033 269.955 793.409 270.411C793.104 270.534 793.033 270.72 793.033 270.72C791.317 271.589 789.6 272.459 787.738 273.079C787.83 272.213 788.068 271.597 788.305 270.981C783.243 271.444 778.181 271.906 773.119 272.368C771.572 271.658 770.026 270.948 768.748 269.85C769.046 268.281 768.825 267.022 769.161 265.936C769.741 264.061 770.668 262.293 771.449 260.481C774.599 269.294 776.264 270.807 782.613 270.437C786.453 270.214 789.665 268.884 791.818 264.83C792.535 264.629 792.729 264.65 792.923 264.67Z" fill="#AC314B"/>
<path d="M411.53 150.843C414.165 142.84 417.065 134.613 420.161 125.687C421.686 121.448 423.017 117.908 424.636 113.603C422.436 114.151 421.373 114.416 420.31 114.68C421.041 112.877 421.771 111.074 422.501 109.271C423.109 109.271 423.718 109.27 424.326 109.27C424.469 112.166 425.505 115.383 424.599 117.902C420.639 128.918 416.116 139.732 411.53 150.843Z" fill="#AD4256"/>
<path d="M475.382 273.381C474.704 263.499 474.413 253.75 474.209 243.999C474.175 242.374 474.523 240.74 475.019 238.83C475.511 246.643 475.879 254.741 475.764 262.831C475.703 267.089 475.99 270.492 481.285 270.836C481.781 270.868 482.233 271.568 484.043 273.061C480.347 273.264 478.072 273.389 475.382 273.381Z" fill="#AD4256"/>
<path d="M796.17 257.581C793.839 251.347 787.789 250.02 782.682 247.657C774.548 243.895 772.864 241.892 773.855 234.926C774.347 234.663 774.567 234.643 774.952 234.604C774.135 239.656 776.534 242.827 780.893 244.895C784.34 246.529 788.095 247.732 791.143 249.921C793.658 251.728 795.336 254.698 797.034 257.402C796.511 257.628 796.34 257.605 796.17 257.581Z" fill="#B23E52"/>
<path d="M435.326 268.284C434.876 268.225 434.212 267.704 434.209 267.18C434.156 258.102 434.144 249.023 434.244 239.946C434.257 238.695 434.916 237.45 436.54 235.804C437.366 237.872 438.193 239.94 438.974 242.396C438.115 241.689 437.301 240.594 436.487 239.498C436.131 239.556 435.775 239.615 435.419 239.673C435.419 249.055 435.419 258.438 435.326 268.284Z" fill="#AD4256"/>
<path d="M717.233 232.078C717.707 232.285 718.826 232.956 718.818 233.614C718.683 245.264 718.412 256.913 717.918 268.687C717.561 256.721 717.457 244.628 717.233 232.078Z" fill="#AD4256"/>
<path d="M747.73 265.451C746.671 265.976 745.506 265.927 744.912 266.485C741.039 270.127 728.536 272.332 724.078 269.942C723.64 269.708 723.532 268.859 723.468 268.022C729.602 268.113 735.541 268.679 741.475 268.629C742.395 268.622 743.214 265.744 744.226 264.297C744.983 263.214 745.975 262.296 746.863 261.304C747.204 262.589 747.545 263.874 747.73 265.451Z" fill="#AD4256"/>
<path d="M399.46 273.389C400.239 272.375 401.536 271.611 402.514 270.552C402.918 270.115 402.64 269.047 402.672 268.265C401.786 268.394 400.9 268.523 399.683 268.717C399.985 266.936 400.468 265.017 401.317 263.277C401.723 262.444 402.822 261.949 403.607 261.302C404.07 262.186 404.879 263.054 404.922 263.959C405.008 265.741 404.474 267.551 404.546 269.335C404.684 272.774 403.214 274.142 399.46 273.389Z" fill="#B23E52"/>
<path d="M417.785 183.889C418.797 185.196 419.547 187.467 420.278 187.461C431.549 187.367 442.817 186.976 454.5 186.632C454.898 187.271 454.882 187.931 454.03 188.629C451.295 188.682 449.397 188.698 447.499 188.715C439.469 188.834 431.438 188.954 422.513 188.884C419.683 188.711 417.747 188.729 415.81 188.747C415.642 188.762 415.473 188.776 415.147 188.354C414.989 187.918 414.924 187.464 414.924 187.464C415.787 186.24 416.65 185.017 417.785 183.889Z" fill="#AD233C"/>
<path d="M663.632 231.137C664.757 230.562 666.294 229.96 667.888 229.683C671.061 229.132 672.311 230.477 672.263 233.795C672.106 244.746 672.19 255.701 672.07 267.025C671.835 257.747 671.675 248.098 671.603 238.448C671.546 230.865 671.594 230.865 663.632 231.137Z" fill="#AD4256"/>
<path d="M756.401 209.755C764.269 206.069 772.494 202.481 781.094 198.828C774.219 204.661 765.724 207.784 756.401 209.755Z" fill="#B63249"/>
<path d="M773.301 272.531C778.181 271.906 783.243 271.444 788.305 270.981C788.068 271.597 787.831 272.213 787.376 273.033C786.88 273.335 786.6 273.433 785.871 273.541C785.421 273.552 785.4 273.533 785.4 273.533C782.167 273.471 778.934 273.409 775.138 273.046C774.378 272.674 774.177 272.653 773.97 272.683C773.97 272.683 773.482 272.693 773.301 272.531Z" fill="#A82B43"/>
<path d="M420.134 114.998C421.373 114.416 422.436 114.151 424.636 113.604C423.017 117.908 421.686 121.448 420.203 125.316C419.576 125.646 419.101 125.649 418.314 125.245C418.284 123.002 418.567 121.165 418.85 119.329C419.219 117.991 419.588 116.654 420.134 114.998Z" fill="#AC132F"/>
<path d="M430.021 232.144C430.495 234.972 431.491 238.259 431.517 241.553C431.581 249.75 431.204 257.951 430.921 266.656C430.651 257.785 430.469 248.408 430.277 239.032C430.234 236.889 430.161 234.747 430.021 232.144Z" fill="#AD4256"/>
<path d="M677.823 266.193C677.528 255.541 677.372 244.438 677.451 233C677.777 243.689 677.87 254.716 677.823 266.193Z" fill="#AD4256"/>
<path d="M397.6 185.984C399.749 179.801 402.177 173.397 404.914 166.817C402.775 173.015 400.326 179.39 397.6 185.984Z" fill="#AD4256"/>
<path d="M700.656 199.766C705.237 201.743 709.985 203.986 714.915 206.541C710.339 204.579 705.581 202.305 700.656 199.766Z" fill="#B63249"/>
<path d="M740.369 231.909C741.866 232.603 743.49 233.616 745.458 234.603C745.502 235.933 745.202 237.289 744.901 238.646C744.086 237.801 743.133 237.049 742.492 236.088C741.693 234.891 741.15 233.523 740.369 231.909Z" fill="#AD4256"/>
<path d="M723.809 246.258C723.686 241.691 723.709 236.764 724.071 231.67C724.259 236.301 724.107 241.099 723.809 246.258Z" fill="#AD4256"/>
<path d="M387.966 197.339C387.727 199.515 387.229 201.858 386.622 204.716C388.015 204.285 389.021 203.974 390.347 203.595C389.087 204.464 387.507 205.4 385.927 206.337C385.51 205.901 385.093 205.465 384.676 205.029C385.686 202.522 386.697 200.014 387.966 197.339Z" fill="#AD4256"/>
<path d="M391.09 202.829C392.491 198.286 394.145 193.566 396.094 188.719C394.707 193.278 393.025 197.965 391.09 202.829Z" fill="#AD4256"/>
<path d="M436.412 273.429C435.999 272.304 435.984 271.29 435.923 269.979C437.964 270.279 440.049 270.876 442.134 271.473C442.01 272.068 441.887 272.664 441.763 273.259C440.112 273.352 438.46 273.446 436.412 273.429Z" fill="#AD4256"/>
<path d="M414.627 129.578C413.501 133.376 412.088 137.362 410.349 141.5C411.462 137.689 412.902 133.727 414.627 129.578Z" fill="#AD4256"/>
<path d="M714.756 227.525C715.627 228.774 716.206 229.887 716.923 231.297C714.965 230.969 712.87 230.343 710.775 229.718C710.794 229.204 710.813 228.691 710.833 228.177C712.043 227.914 713.254 227.652 714.756 227.525Z" fill="#AD4256"/>
<path d="M771.413 260.434C770.668 262.293 769.741 264.061 769.161 265.936C768.825 267.022 769.046 268.281 768.694 269.544C768.41 265.999 768.448 262.372 769.074 258.722C769.994 258.716 770.325 258.742 770.655 258.778C770.655 258.778 770.916 258.749 771.011 259.202C771.178 259.864 771.249 260.073 771.321 260.283C771.321 260.283 771.376 260.387 771.413 260.434Z" fill="#A82B43"/>
<path d="M715.8 270.126C716.138 271.005 716.101 271.846 716.08 273.004C714.442 273.321 712.788 273.321 711.134 273.321C711.056 272.788 710.978 272.255 710.9 271.722C712.408 271.178 713.916 270.633 715.8 270.126Z" fill="#AD4256"/>
<path d="M428.736 270.052C429.282 271.034 429.475 271.984 429.829 273.13C427.965 273.324 425.937 273.324 423.909 273.324C423.796 272.867 423.682 272.41 423.568 271.953C425.173 271.31 426.778 270.666 428.736 270.052Z" fill="#AD4256"/>
<path d="M392.598 185.5C391.689 188.68 390.502 192.062 389.025 195.579C389.93 192.377 391.125 189.04 392.598 185.5Z" fill="#AD4256"/>
<path d="M743.616 227.556C738.667 227.726 733.344 227.762 727.562 227.734C732.482 227.588 737.862 227.505 743.616 227.556Z" fill="#AD4256"/>
<path d="M418.574 119.531C418.567 121.165 418.285 123.002 417.958 125.239C417.145 126.532 416.375 127.424 415.351 128.477C416.163 125.67 417.23 122.702 418.574 119.531Z" fill="#AD4256"/>
<path d="M690.332 185.166C688.668 183.696 686.904 181.892 685.155 179.709C686.856 181.165 688.544 182.999 690.332 185.166Z" fill="#B63249"/>
<path d="M678.409 231.301C679.383 230.807 680.811 230.243 682.642 229.663C683.046 229.647 683.02 229.671 683.02 229.671C684.198 230.044 685.377 230.418 686.765 231.028C684.271 231.254 681.566 231.242 678.409 231.301Z" fill="#AD4256"/>
<path d="M438.902 243.102C439.98 245.356 441.059 247.998 442.132 251.016C441.051 248.759 439.977 246.125 438.902 243.102Z" fill="#AD4256"/>
<path d="M396.553 175.41C396.042 177.603 395.257 180.003 394.201 182.553C394.713 180.341 395.496 177.978 396.553 175.41Z" fill="#AD4256"/>
<path d="M784.324 197.022C785.528 195.559 787.038 194.126 788.895 192.677C787.705 194.125 786.168 195.589 784.324 197.022Z" fill="#B63249"/>
<path d="M702.946 195.344C701.054 194.437 699.058 193.228 697.026 191.706C698.94 192.609 700.891 193.825 702.946 195.344Z" fill="#B63249"/>
<path d="M796.139 258.031C796.34 257.605 796.511 257.628 796.938 257.672C797.414 257.939 797.516 258.226 797.326 259.291C797.187 261.418 797.223 262.808 797.259 264.199C797.054 265.169 796.85 266.139 796.298 267.397C795.95 267.685 795.911 267.821 795.911 267.821C795.911 267.821 795.772 268.181 795.591 268.248C795.643 265.037 795.875 261.759 796.139 258.031Z" fill="#A82B43"/>
<path d="M679.188 178.937C680.418 180.096 681.688 181.591 682.963 183.466C681.721 182.322 680.474 180.798 679.188 178.937Z" fill="#B63249"/>
<path d="M407.713 160.099C408.187 158.169 408.925 156.018 409.94 153.724C409.471 155.68 408.724 157.779 407.713 160.099Z" fill="#AD4256"/>
<path d="M683.51 184.926C684.674 185.689 685.847 186.756 687.073 188.134C685.924 187.374 684.721 186.301 683.51 184.926Z" fill="#B63249"/>
<path d="M794.578 180.348C793.856 181.662 792.828 183.12 791.446 184.622C792.151 183.274 793.212 181.883 794.578 180.348Z" fill="#B63249"/>
<path d="M692.903 194.053C694.181 194.703 695.568 195.66 697.011 196.939C695.716 196.294 694.364 195.326 692.903 194.053Z" fill="#B63249"/>
<path d="M657.822 227.476C657.726 229.505 657.372 231.401 656.887 233.715C657.026 231.87 657.295 229.606 657.822 227.476Z" fill="#AD4256"/>
<path d="M401.398 163.231C401.071 164.747 400.495 166.501 399.629 168.442C399.943 166.91 400.546 165.19 401.398 163.231Z" fill="#AD4256"/>
<path d="M660.081 235.387C660.327 234.294 660.808 232.978 661.602 231.636C661.381 232.794 660.849 233.98 660.081 235.387Z" fill="#AD4256"/>
<path d="M695.032 189.448C694.071 188.994 693.088 188.283 692.067 187.29C693.023 187.735 694.018 188.463 695.032 189.448Z" fill="#B63249"/>
<path d="M750.254 210.953C751.122 210.51 752.261 210.195 753.654 210.08C752.78 210.547 751.652 210.814 750.254 210.953Z" fill="#B63249"/>
<path d="M670.78 227.539C669.857 227.841 668.672 228.005 667.274 227.922C668.214 227.584 669.367 227.493 670.78 227.539Z" fill="#AD4256"/>
<path d="M687.303 188.874C688.177 189.312 689.123 190.051 690.092 191.14C689.202 190.718 688.288 189.946 687.303 188.874Z" fill="#B63249"/>
<path d="M404.568 155.372C404.382 156.582 403.933 157.993 403.212 159.55C403.396 158.322 403.851 156.947 404.568 155.372Z" fill="#AD4256"/>
<path d="M707.516 198.134C706.546 197.917 705.386 197.44 704.122 196.649C705.12 196.848 706.223 197.361 707.516 198.134Z" fill="#B63249"/>
<path d="M683.385 271.042C682.217 271.077 680.84 270.833 679.275 270.288C680.449 270.246 681.812 270.504 683.385 271.042Z" fill="#AD4256"/>
<path d="M686.765 227.515C685.36 227.679 683.63 227.742 681.473 227.725C682.844 227.569 684.642 227.492 686.765 227.515Z" fill="#AD4256"/>
<path d="M727.324 210.556C728.009 210.312 728.876 210.255 729.904 210.446C729.212 210.71 728.359 210.727 727.324 210.556Z" fill="#B63249"/>
<path d="M416.15 188.913C417.747 188.729 419.683 188.711 422.112 188.702C420.566 188.834 418.528 188.957 416.15 188.913Z" fill="#B4223C"/>
<path d="M797.481 263.956C797.223 262.808 797.187 261.418 797.248 259.51C797.464 260.567 797.583 262.141 797.481 263.956Z" fill="#B23E52"/>
<path d="M447.852 188.897C449.397 188.698 451.295 188.682 453.657 188.684C452.149 188.828 450.177 188.954 447.852 188.897Z" fill="#B4223C"/>
<path d="M406.724 149.691C406.779 150.486 406.581 151.451 406.112 152.551C406.051 151.745 406.261 150.803 406.724 149.691Z" fill="#AD4256"/>
<path d="M790.347 191.926C790.697 191.217 791.373 190.455 792.356 189.621C792 190.324 791.337 191.099 790.347 191.926Z" fill="#B63249"/>
<path d="M689.351 235.965C689.845 236.541 690.384 237.423 690.786 238.613C690.231 238.038 689.814 237.155 689.351 235.965Z" fill="#AD4256"/>
<path d="M792.964 264.281C792.729 264.65 792.535 264.629 792.051 264.577C791.751 264.169 791.742 263.792 791.887 262.736C792.065 261.22 792.088 260.383 792.11 259.546C792.409 260.995 792.707 262.443 792.964 264.281Z" fill="#A82B43"/>
<path d="M745.855 232.426C745.56 232.052 745.431 231.534 745.482 230.877C745.782 231.253 745.901 231.767 745.855 232.426Z" fill="#AD4256"/>
<path d="M723.348 209.492C723.738 209.312 724.316 209.321 724.978 209.525C724.554 209.707 724.044 209.695 723.348 209.492Z" fill="#B63249"/>
<path d="M718.628 208.102C719.211 207.998 719.981 208.134 720.905 208.533C720.31 208.645 719.563 208.493 718.628 208.102Z" fill="#B63249"/>
<path d="M684.693 178.364C684.187 178.079 683.659 177.499 683.162 176.585C683.685 176.858 684.179 177.464 684.693 178.364Z" fill="#B63249"/>
<path d="M682.707 175.371C682.203 175.13 681.662 174.602 681.125 173.757C681.643 173.989 682.156 174.537 682.707 175.371Z" fill="#B63249"/>
<path d="M665.67 271.4C666.012 271.782 666.081 272.18 666.162 272.879C665.768 273.102 665.363 273.022 664.958 272.941C665.104 272.433 665.251 271.924 665.67 271.4Z" fill="#AD4256"/>
<path d="M746.265 273.366C746.255 272.784 746.538 272.252 747.039 271.635C747.023 272.173 746.79 272.795 746.265 273.366Z" fill="#AD4256"/>
<path d="M790.796 184.811C790.62 185.327 790.17 185.952 789.404 186.613C789.566 186.073 790.043 185.497 790.796 184.811Z" fill="#B63249"/>
<path d="M690.302 191.839C690.801 191.957 691.38 192.34 692.01 192.996C691.502 192.881 690.942 192.493 690.302 191.839Z" fill="#B63249"/>
<path d="M697.939 198.006C698.509 198.068 699.232 198.385 700.054 199.007C699.466 198.962 698.779 198.612 697.939 198.006Z" fill="#B63249"/>
<path d="M668.85 270.42C668.426 270.807 667.717 271.115 666.715 271.284C667.137 270.877 667.851 270.609 668.85 270.42Z" fill="#AD4256"/>
<path d="M405.553 165.98C405.455 165.391 405.604 164.621 406.031 163.717C406.139 164.322 405.969 165.061 405.553 165.98Z" fill="#AD4256"/>
<path d="M677.754 227.531C677.005 227.734 676.012 227.802 674.656 227.8C675.365 227.619 676.437 227.508 677.754 227.531Z" fill="#AD4256"/>
<path d="M408.504 145.259C408.597 145.868 408.441 146.661 407.989 147.577C407.881 146.948 408.068 146.195 408.504 145.259Z" fill="#AD4256"/>
<path d="M611.429 74.4774C611.985 74.2896 612.865 74.295 613.86 74.5749C613.236 74.7897 612.495 74.7302 611.429 74.4774Z" fill="#AC314B"/>
<path d="M527.395 74.5925C527.563 74.31 528.056 73.9445 528.718 73.7319C528.498 74.0931 528.109 74.3013 527.395 74.5925Z" fill="#AC314B"/>
<path d="M791.955 259.505C792.088 260.383 792.065 261.22 792 262.475C791.762 261.99 791.566 261.087 791.426 259.842C791.481 259.499 791.8 259.464 791.955 259.505Z" fill="#AC314B"/>
<path d="M679.432 273.379C680.033 273.109 680.982 272.955 682.283 272.962C681.683 273.247 680.731 273.371 679.432 273.379Z" fill="#AD4256"/>
<path d="M691.001 227.429C690.71 227.626 690.212 227.7 689.345 227.684C689.583 227.498 690.189 227.401 691.001 227.429Z" fill="#AD4256"/>
<path d="M668.377 273.349C668.613 273.111 669.163 272.994 669.854 273.066C669.56 273.326 669.125 273.397 668.377 273.349Z" fill="#AD4256"/>
<path d="M770.605 258.585C770.325 258.742 769.994 258.716 769.414 258.685C769.63 258.577 770.093 258.484 770.605 258.585Z" fill="#AC314B"/>
<path d="M442.707 252.993C442.935 253.115 443.084 253.419 443.246 253.897C443.048 253.772 442.839 253.474 442.707 252.993Z" fill="#AD4256"/>
<path d="M715.43 207.131C715.765 207.007 716.189 207.077 716.83 207.395C716.538 207.537 716.029 207.43 715.43 207.131Z" fill="#B63249"/>
<path d="M796.911 177.465C796.891 177.848 796.701 178.134 796.275 178.534C796.273 178.222 796.507 177.795 796.911 177.465Z" fill="#B63249"/>
<path d="M691.022 239.318C691.241 238.932 691.656 238.758 692.412 238.561C692.241 238.869 691.73 239.198 691.022 239.318Z" fill="#AD4256"/>
<path d="M793.089 270.836C793.033 270.72 793.104 270.534 793.175 270.459C793.247 270.384 793.403 270.707 793.403 270.707C793.403 270.707 793.144 270.953 793.089 270.836Z" fill="#B23E52"/>
<path d="M785.405 273.631C785.4 273.533 785.421 273.552 785.427 273.538C785.433 273.525 785.511 273.793 785.511 273.793C785.511 273.793 785.411 273.729 785.405 273.631Z" fill="#AC314B"/>
<path d="M607.26 73.9595C607.309 73.7333 607.586 73.6148 607.914 73.699C607.806 73.9569 607.647 74.0121 607.26 73.9595Z" fill="#AC314B"/>
<path d="M430.506 268.232C430.638 268.453 430.526 268.867 430.11 269.418C429.959 269.178 430.111 268.801 430.506 268.232Z" fill="#AD4256"/>
<path d="M670.927 269.553C670.909 269.658 670.901 269.629 670.929 269.633C670.957 269.637 670.945 269.448 670.927 269.553Z" fill="#AD4256"/>
<path d="M774.085 272.806C774.177 272.653 774.378 272.673 774.71 272.816C774.845 272.887 774.529 273.003 774.529 273.003C774.529 273.003 774.2 272.929 774.085 272.806Z" fill="#AC314B"/>
<path d="M795.971 267.918C795.911 267.821 795.95 267.685 796.013 267.654C796.076 267.622 796.266 267.831 796.266 267.831C796.266 267.831 796.031 268.016 795.971 267.918Z" fill="#B23E52"/>
<path d="M716.908 269.536C716.89 269.634 716.891 269.606 716.917 269.609C716.944 269.611 716.925 269.439 716.908 269.536Z" fill="#AD4256"/>
<path d="M709.479 199.182C709.246 199.327 708.817 199.19 708.198 198.763C708.433 198.616 708.857 198.758 709.479 199.182Z" fill="#B63249"/>
<path d="M402.126 161.328C402.176 161.433 402.144 161.389 402.165 161.371C402.187 161.353 401.926 161.383 401.926 161.383C401.926 161.383 402.076 161.223 402.126 161.328Z" fill="#AD4256"/>
<path d="M406.996 162.095C406.897 162.021 406.914 161.846 406.966 161.777C407.018 161.707 407.267 161.885 407.267 161.885C407.267 161.885 407.095 162.168 406.996 162.095Z" fill="#AD4256"/>
<path d="M398.598 170.355C398.769 170.561 398.694 170.933 398.382 171.478C398.214 171.274 398.283 170.898 398.598 170.355Z" fill="#AD4256"/>
<path d="M800.176 178.399C800.228 178.35 800.28 178.477 800.297 178.511C800.313 178.544 800.124 178.448 800.176 178.399Z" fill="#B63249"/>
<path d="M798.293 183.556C798.111 183.301 798.253 183.063 798.662 182.773C798.955 183.034 798.851 183.318 798.293 183.556Z" fill="#B63249"/>
<path d="M414.76 187.561C414.924 187.464 414.989 187.918 415.001 188.146C414.873 188.135 414.735 187.896 414.76 187.561Z" fill="#B4223C"/>
<path d="M782.321 198.436C782.193 198.143 782.391 197.929 782.884 197.727C783.076 198.028 782.899 198.287 782.321 198.436Z" fill="#B63249"/>
<path d="M771.485 260.113C771.249 260.073 771.178 259.864 771.028 259.332C771.183 259.321 771.416 259.633 771.485 260.113Z" fill="#AC314B"/>
<path d="M663.929 227.523C663.857 227.682 663.692 227.719 663.282 227.694C663.23 227.361 663.497 227.284 663.929 227.523Z" fill="#AD4256"/>
<path d="M745.313 228.177C745.068 228.367 744.715 228.259 744.195 227.921C744.419 227.754 744.812 227.816 745.313 228.177Z" fill="#AD4256"/>
<path d="M692.964 231.265C692.857 231.233 692.819 231.163 692.835 231.128C692.851 231.092 693.138 231.072 693.138 231.072C693.138 231.072 693.071 231.297 692.964 231.265Z" fill="#AD4256"/>
<path d="M728.331 231.217C728.278 230.803 728.518 230.724 728.911 230.985C728.991 231.106 728.55 231.335 728.331 231.217Z" fill="#AD4256"/>
<path d="M734.332 231.223C734.277 230.807 734.516 230.727 734.911 230.988C734.99 231.11 734.551 231.339 734.332 231.223Z" fill="#AD4256"/>
<path d="M659.048 238.249C658.915 238.265 658.9 237.958 658.968 237.913C659.036 237.867 659.273 237.984 659.273 237.984C659.273 237.984 659.182 238.233 659.048 238.249Z" fill="#AD4256"/>
<path d="M168.691 143.349C168.84 143.045 168.99 142.74 169.495 142.077C170.246 141.191 170.676 140.687 171.028 140.132C182.777 121.661 195.389 103.927 213.704 91.2018C234.512 76.7454 261.642 75.4936 279.362 102.149C282.861 107.413 286.449 112.777 287.521 119.942C285.478 119.534 284.216 119.308 282.967 119.027C273.492 116.902 268.49 119.404 264.65 128.244C264.121 129.463 263.608 130.717 263.315 132.007C261.185 141.41 259.041 150.811 257.039 160.241C253.861 175.206 251.938 190.549 247.45 205.104C235.536 243.734 209.459 266.664 168.867 271.976C152.19 274.158 135.471 276.019 118.77 278.017C116.294 278.314 113.814 278.565 111.335 278.837C111.169 278.362 111.002 277.887 110.836 277.412C114.443 274.919 117.777 271.821 121.709 270.047C133.832 264.576 146.009 259.139 158.482 254.548C185.288 244.68 203.9 226.723 213.875 200.004C219.697 184.411 225.039 168.64 230.662 152.972C236.387 137.02 242.95 121.606 258.439 112.049C258.667 112.034 259.032 111.756 259.446 111.777C265.063 110.768 270.266 109.738 276.564 108.491C274.039 106.481 272.091 104.929 270.057 103.255C269.97 103.133 269.675 103.082 269.628 103C269.582 102.919 269.45 102.785 269.275 102.439C268.013 101.46 266.925 100.826 265.821 100.221C265.803 100.25 265.839 100.225 265.814 100.037C265.789 99.8482 265.524 99.5752 265.464 99.2773C260.007 94.7324 254.132 91.8173 246.614 92.2993C245.154 92.3373 244.088 92.4658 242.607 92.523C237.951 93.821 233.473 94.7048 229.515 96.6484C216.363 103.106 205.246 112.354 195.276 122.993C188.369 130.364 181.618 137.881 174.798 145.333C174.798 145.333 174.825 145.426 174.439 145.427C171.163 147.613 168.273 149.799 165.233 151.836C165.084 151.688 164.782 151.395 164.779 151.098C164.791 150.409 164.806 150.017 165.019 149.344C165.391 148.409 165.565 147.754 165.738 147.099C166.1 146.774 166.462 146.449 167.257 145.844C168.023 144.825 168.357 144.087 168.691 143.349Z" fill="#FCF7F7"/>
<path d="M157.061 90.7322C148.97 101.76 143.081 113.438 140.958 126.683C137.568 147.826 146.222 164.425 161.556 177.99C167.503 183.25 174.36 187.483 180.826 192.15C182.122 193.085 183.528 193.868 184.884 194.721C184.772 195.147 184.66 195.573 184.549 195.999C182.745 195.749 180.844 195.783 179.151 195.208C156.491 187.51 136.059 176.186 122.072 156.151C108.126 136.173 108.857 114.893 119.516 93.7108C126.896 79.0426 138.044 67.3951 150.611 57.0126C153.399 54.7093 154.883 55.3261 156.082 58.5162C158.363 64.584 160.669 70.6488 163.215 76.6082C164.627 79.9141 164.586 82.5339 161.71 85.0692C159.99 86.5859 158.737 88.6328 157.061 90.7322Z" fill="#FBF5F6"/>
<path d="M75.4057 107.936C78.9506 89.6257 86.2286 73.486 98.0137 57.5796C103.821 63.7834 109.249 69.1516 114.018 75.053C114.936 76.189 113.762 79.6857 112.707 81.6346C106.869 92.4117 102.288 103.591 100.97 115.876C98.4372 139.485 107.299 158.491 125.899 172.446C135.802 179.876 147.192 185.326 157.93 191.634C159.324 192.453 160.839 193.066 163.227 194.224C161.598 194.762 160.918 195.233 160.313 195.15C138.318 192.139 117.16 186.454 98.7898 173.451C80.7478 160.68 73.2863 142.526 74.0722 120.757C74.2217 116.615 74.9019 112.493 75.4057 107.936Z" fill="#FBF5F6"/>
<path d="M67.3098 148.035C76.2974 171.458 94.4276 184.046 116.77 191.523C126.532 194.79 136.637 197.031 146.579 199.768C147.664 200.067 148.695 200.562 149.751 200.966C149.733 201.404 149.715 201.843 149.698 202.281C143.692 202.281 137.674 202.531 131.685 202.215C125.068 201.865 118.484 200.918 111.875 200.367C90.9632 198.622 72.6768 191.395 59.1689 174.654C46.3826 158.807 43.1376 140.255 45.1177 120.577C45.7461 114.332 47.629 108.211 48.9795 102.043C49.782 98.3773 51.5367 97.7262 54.5594 100.168C56.4906 101.728 58.5802 103.237 60.8382 104.217C65.4758 106.231 66.514 109.255 65.4367 114.142C62.9537 125.403 63.6558 136.642 67.3098 148.035Z" fill="#FAF2F3"/>
<path d="M258.21 112.064C242.95 121.606 236.387 137.02 230.662 152.972C225.039 168.64 219.697 184.411 213.875 200.004C203.9 226.723 185.288 244.68 158.482 254.547C146.009 259.139 133.832 264.576 121.709 270.047C117.777 271.821 114.443 274.919 110.836 277.412C111.002 277.887 111.169 278.362 111.335 278.837C113.814 278.565 116.294 278.314 118.77 278.017C135.471 276.019 152.19 274.158 168.867 271.976C209.459 266.664 235.536 243.734 247.45 205.103C251.938 190.548 253.861 175.206 257.039 160.241C259.041 150.811 261.185 141.41 263.315 132.007C263.608 130.717 264.121 129.463 264.65 128.244C268.49 119.403 273.492 116.902 282.967 119.027C284.216 119.307 285.478 119.533 287.521 119.942C286.449 112.777 282.861 107.412 279.362 102.149C261.642 75.4935 234.512 76.7453 213.704 91.2017C195.389 103.927 182.777 121.661 171.028 140.132C170.676 140.686 170.246 141.191 169.515 141.822C169.895 139.422 169.948 136.402 171.434 134.499C180.391 123.023 189.29 111.458 198.966 100.598C207.595 90.9128 218.543 83.7827 231.085 80.5309C244.483 77.0574 257.318 78.4349 268.992 87.8141C278.452 95.4137 283.924 105.317 289.101 115.667C289.785 117.033 289.81 119.565 288.968 120.629C288.082 121.749 285.566 122.528 284.144 122.122C273.747 119.149 267.913 121.853 265.277 132.558C262.315 144.587 260.274 156.845 257.908 169.018C254.28 187.687 251.811 206.759 242.591 223.753C237.738 232.699 231.681 240.825 224.484 248.418C216.696 256.636 207.526 262.326 197.867 266.92C189.969 270.676 180.735 271.869 171.961 273.472C161.232 275.431 150.384 276.794 139.551 278.108C130.904 279.156 122.207 279.829 113.518 280.462C111.856 280.583 110.124 279.739 107.805 279.196C111.967 272.266 117.917 268.743 124.23 265.921C133.987 261.56 143.997 257.767 153.75 253.398C162.713 249.382 171.854 245.55 180.24 240.511C192.159 233.35 201.275 222.916 206.62 210.174C214.4 191.626 220.718 172.47 228.137 153.764C231.95 144.15 236.21 134.604 241.4 125.686C244.559 120.259 249.875 116.089 254.665 111.021C256.142 111.147 257.176 111.605 258.21 112.064Z" fill="#B23E52"/>
<path d="M175.146 145.396C181.618 137.881 188.369 130.364 195.276 122.993C205.246 112.354 216.363 103.106 229.515 96.6483C233.473 94.7047 237.951 93.8209 242.618 92.7773C243.034 93.2724 243.022 93.4418 243.011 93.6112C225.406 98.2397 211.778 109.068 199.35 121.718C192.734 128.452 186.277 135.342 179.683 142.099C178.442 143.371 176.898 144.348 175.146 145.396Z" fill="#BF6877"/>
<path d="M164.821 149.625C164.806 150.017 164.791 150.408 164.584 151.257C164.415 151.95 164.44 152.186 164.464 152.422C164.771 152.276 165.077 152.13 165.383 151.984C168.273 149.799 171.163 147.613 174.394 145.408C171.435 148.924 168.189 152.513 164.771 155.932C164.313 156.389 162.99 155.983 162.068 155.976C162.222 154.351 162.376 152.727 163.031 150.777C163.961 150.176 164.391 149.9 164.821 149.625Z" fill="#BF6877"/>
<path d="M258.439 112.049C257.176 111.606 256.142 111.147 254.756 110.674C252.625 109.985 250.847 109.311 248.999 108.214C248.929 107.791 249.099 107.586 249.47 107.645C253.555 109.657 256.32 107.944 258.989 105.708C259.775 107.054 260.433 108.059 261.015 109.334C260.304 110.322 259.668 111.039 259.032 111.757C259.032 111.757 258.667 112.034 258.439 112.049Z" fill="#B63249"/>
<path d="M248.849 107.898C243.867 105.896 243.305 103.623 246.728 97.7759C247.222 97.7878 247.542 98.0562 247.462 98.4533C247.954 101.762 248.526 104.674 249.099 107.586C249.099 107.586 248.929 107.791 248.849 107.898Z" fill="#B63249"/>
<path d="M243.342 93.7526C243.022 93.4416 243.034 93.2723 243.034 92.8484C244.088 92.4655 245.154 92.3371 246.771 92.6253C247.929 94.299 248.536 95.556 248.96 96.9907C248.365 97.4643 247.954 97.7601 247.542 98.0559C247.542 98.0559 247.222 97.7876 247.061 97.6518C245.825 96.3088 244.75 95.1014 243.342 93.7526Z" fill="#B63249"/>
<path d="M165.019 149.344C164.391 149.9 163.961 150.176 163.296 150.554C163.692 149.411 164.324 148.164 165.346 147.008C165.565 147.754 165.391 148.408 165.019 149.344Z" fill="#B23E52"/>
<path d="M168.579 143.258C168.357 144.087 168.023 144.825 167.364 145.621C167.043 145.254 167.047 144.829 167.403 143.989C167.898 143.461 168.041 143.347 168.185 143.233C168.185 143.233 168.467 143.166 168.579 143.258Z" fill="#BF6877"/>
<path d="M168.018 143.157C168.041 143.347 167.898 143.46 167.502 143.681C167.45 143.552 167.651 143.317 168.018 143.157Z" fill="#B23E52"/>
<path d="M770.952 85.7406C766.753 84.3415 762.52 83.0395 758.363 81.5256C744.721 76.5573 731.372 78.4221 718.113 83.0723C717.684 83.2228 717.192 83.1949 716.628 83.2622C722.195 75.2707 753.972 72.6133 770.872 85.34C771.041 85.6525 770.952 85.7406 770.952 85.7406Z" fill="#B20622"/>
<path d="M680.838 144.865C679.424 137.242 679.396 130.142 682.517 123.196C682.517 132.487 682.517 141.778 682.517 151.069C682.137 151.113 681.758 151.158 681.378 151.202C681.223 149.237 681.068 147.273 680.838 144.865Z" fill="#B20622"/>
<path d="M684.108 159.474C683.415 157.175 682.809 155.244 682.202 153.313C682.609 153.18 683.015 153.047 683.422 152.915C685.079 157.058 686.737 161.202 688.394 165.346C687.99 165.556 687.585 165.766 687.181 165.975C686.186 163.93 685.19 161.886 684.108 159.474Z" fill="#B20622"/>
<path d="M691.336 169.492C693.051 171.752 694.51 173.787 695.969 175.822C695.514 176.156 695.06 176.489 694.605 176.823C692.867 174.52 691.129 172.216 689.39 169.913C689.953 169.698 690.516 169.482 691.336 169.492Z" fill="#B20622"/>
<path d="M704.09 89.6918C702.909 91.4024 701.729 93.1131 700.549 94.8237C700.026 94.3592 699.503 93.8948 698.979 93.4303C700.431 92.1854 701.882 90.9406 703.694 89.6748C704.055 89.6538 704.09 89.6918 704.09 89.6918Z" fill="#B20622"/>
<path d="M684.143 116.064C684.357 117.551 684.225 119.01 684.093 120.468C683.47 120.323 682.846 120.178 682.223 120.033C682.748 118.7 683.272 117.367 684.143 116.064Z" fill="#B20622"/>
<path d="M687.151 110.731C686.879 111.839 686.606 112.948 686.334 114.057C685.898 113.94 685.462 113.823 685.027 113.706C685.433 112.696 685.84 111.686 686.638 110.653C687.03 110.629 687.151 110.731 687.151 110.731Z" fill="#B20622"/>
<path d="M779.623 91.0109C779.221 91.5646 778.677 91.8403 778.132 92.116C777.892 91.5477 777.651 90.9794 777.41 90.4111C778.1 90.5183 778.79 90.6256 779.623 91.0109Z" fill="#B20622"/>
<path d="M704.927 186.301C704.202 185.705 703.789 185.097 703.377 184.489C703.781 184.344 704.186 184.199 704.591 184.054C704.807 184.799 705.023 185.544 704.927 186.301Z" fill="#B20622"/>
<path d="M783.216 95.4863C784.164 96.0971 785.112 96.708 786.059 97.3188C785.746 97.7121 785.432 98.1055 785.119 98.4988C784.414 97.8219 783.71 97.1451 783.025 96.0609C783.044 95.6536 783.216 95.4863 783.216 95.4863Z" fill="#B20622"/>
<path d="M686.97 110.576C687.113 109.664 687.315 108.804 687.518 107.945C687.901 108.037 688.285 108.128 688.668 108.22C688.346 108.95 688.024 109.679 687.427 110.57C687.151 110.731 687.03 110.628 686.97 110.576Z" fill="#B20622"/>
<path d="M700.195 182.526C700.484 181.986 700.857 181.728 701.229 181.471C701.395 181.884 701.561 182.296 701.727 182.709C701.245 182.742 700.762 182.775 700.195 182.526Z" fill="#B20622"/>
<path d="M782.961 95.7402C782.392 95.3624 781.906 94.8983 781.42 94.4341C781.967 94.6009 782.514 94.7678 783.138 95.2106C783.216 95.4866 783.044 95.6538 782.961 95.7402Z" fill="#B20622"/>
<path d="M775.49 89.1701C774.986 89.1089 774.679 88.8627 774.372 88.6165C774.572 88.4256 774.772 88.2348 774.972 88.0439C775.211 88.3577 775.45 88.6714 775.49 89.1701Z" fill="#B20622"/>
<path d="M771.086 85.6079C771.631 85.845 772.149 86.1024 772.611 86.4376C772.67 86.4806 772.435 86.9287 772.336 87.1892C771.908 86.8965 771.48 86.6038 771.002 86.0257C770.952 85.7404 771.041 85.6523 771.086 85.6079Z" fill="#B20622"/>
<path d="M709.465 87.1373C708.966 87.0788 708.665 86.8394 708.364 86.5999C708.565 86.4104 708.766 86.2208 708.966 86.0312C709.199 86.3396 709.431 86.6479 709.465 87.1373Z" fill="#B20622"/>
<path d="M712.621 84.1416C713.108 84.1955 713.404 84.4331 713.7 84.6706C713.502 84.8588 713.304 85.0471 713.105 85.2354C712.88 84.932 712.655 84.6286 712.621 84.1416Z" fill="#B20622"/>
<path d="M698.502 180.152C697.998 180.088 697.691 179.84 697.385 179.591C697.583 179.403 697.781 179.214 697.98 179.025C698.219 179.339 698.459 179.654 698.502 180.152Z" fill="#B20622"/>
<path d="M706.171 88.7518C705.68 89.0633 705.189 89.3748 704.394 89.6889C704.09 89.6916 704.055 89.6536 704.038 89.633C704.471 89.2734 704.919 88.9344 705.713 88.6226C706.059 88.6498 706.171 88.7518 706.171 88.7518Z" fill="#B20622"/>
<path d="M706.007 88.5948C706.123 88.5493 706.291 88.5591 706.315 88.6605C706.17 88.7521 706.059 88.6502 706.007 88.5948Z" fill="#B20622"/>
<path d="M675.015 166.679C672.853 160.671 670.243 154.78 668.636 148.627C666.219 139.38 668.191 122.587 672.266 113.584C672.605 114.751 673.058 115.461 672.953 116.076C671.761 123.046 669.328 130.035 669.531 136.951C669.768 145.03 672.265 153.046 673.83 161.081C674.142 162.683 674.668 164.244 675.071 166.237C675.046 166.649 675.015 166.679 675.015 166.679Z" fill="#B20622"/>
<path d="M679.033 172.34C678.967 172.907 678.732 173.197 678.258 173.635C677.364 172.678 676.71 171.572 676.056 170.466C676.357 170.274 676.658 170.083 676.959 169.892C677.594 170.616 678.229 171.34 679.033 172.34Z" fill="#B20622"/>
<path d="M675.493 107.02C675.438 106.219 675.599 105.652 675.761 105.085C676.124 105.291 676.487 105.498 676.85 105.704C676.47 106.221 676.09 106.737 675.493 107.02Z" fill="#B20622"/>
<path d="M674.479 111.168C674 111.115 673.707 110.874 673.414 110.633C673.607 110.442 673.8 110.251 673.992 110.06C674.217 110.367 674.441 110.674 674.479 111.168Z" fill="#B20622"/>
<path d="M675.064 166.635C675.205 167.086 675.329 167.55 675.453 168.015C675.316 167.735 675.18 167.456 675.029 166.927C675.015 166.679 675.046 166.649 675.064 166.635Z" fill="#B20622"/>
<path d="M624.692 241.008C622.87 238.168 621.222 235.678 619.573 233.188C619.085 233.31 618.596 233.431 618.108 233.553C619.137 231.992 620.165 230.43 621.836 227.893C627.991 242.977 633.729 257.039 639.585 271.388C637.713 271.388 636.161 271.388 635.802 271.388C632.004 260.958 628.435 251.158 624.692 241.008Z" fill="#BC0423"/>
<path d="M683.029 229.659C683.933 229.286 684.853 228.9 685.774 228.515C685.868 228.789 685.963 229.064 686.057 229.339C685.272 229.442 684.487 229.544 683.361 229.659C683.019 229.671 683.046 229.647 683.029 229.659Z" fill="#B20622"/>
<path d="M261.09 109.063C260.433 108.058 259.775 107.053 259.028 105.309C258.94 102.964 258.941 101.358 259.15 99.4345C261.413 99.2697 263.469 99.4224 265.524 99.575C265.524 99.575 265.789 99.8481 265.667 100.178C265.643 100.402 265.741 100.297 265.838 100.191C266.925 100.825 268.013 101.459 268.985 102.374C268.621 102.803 268.372 102.95 268.124 103.098C268.641 103.093 269.158 103.087 269.675 103.082C269.675 103.082 269.97 103.133 270.057 103.65C270.75 105.965 271.523 107.641 268.339 107.779C265.909 107.885 263.505 108.613 261.09 109.063Z" fill="#BC0423"/>
<path d="M265.464 99.2771C263.469 99.4223 261.413 99.2696 258.82 99.2948C255.797 96.6607 252.754 95.762 249.144 96.8131C248.536 95.556 247.929 94.2991 247.165 92.7158C254.132 91.8171 260.007 94.7322 265.464 99.2771Z" fill="#BF6877"/>
<path d="M261.015 109.334C263.505 108.612 265.909 107.885 268.339 107.779C271.523 107.641 270.75 105.965 270.143 103.772C272.091 104.929 274.039 106.48 276.564 108.491C270.266 109.738 265.063 110.767 259.446 111.777C259.668 111.039 260.304 110.321 261.015 109.334Z" fill="#B23E52"/>
<path d="M269.628 103C269.158 103.087 268.641 103.093 268.124 103.098C268.372 102.95 268.621 102.803 269.159 102.72C269.45 102.785 269.582 102.919 269.628 103Z" fill="#B23E52"/>
<path d="M265.821 100.221C265.741 100.297 265.643 100.402 265.692 100.366C265.839 100.225 265.803 100.25 265.821 100.221Z" fill="#B23E52"/>
<path d="M165.233 151.836C165.077 152.13 164.771 152.276 164.464 152.422C164.44 152.186 164.416 151.95 164.586 151.555C164.782 151.395 165.084 151.688 165.233 151.836Z" fill="#FCF7F7"/>
<path d="M248.96 96.9911C252.754 95.7624 255.797 96.661 258.612 99.6127C258.941 101.358 258.94 102.964 258.9 104.969C256.32 107.944 253.555 109.657 249.47 107.645C248.526 104.674 247.954 101.762 247.462 98.4534C247.954 97.7605 248.365 97.4647 248.96 96.9911Z" fill="#FBE7EA"/>
</svg>
